<svg width="17" height="16" viewBox="0 0 17 16" fill="none" xmlns="http://www.w3.org/2000/svg">
<rect x="0.601318" width="15.7424" height="15.7424" rx="7.87122" fill="#5865F2"/>
<path d="M12.2913 4.25972C11.5889 3.92752 10.8358 3.68276 10.0483 3.54258C10.0339 3.53987 10.0196 3.54664 10.0122 3.56016C9.91535 3.73775 9.80806 3.96943 9.73292 4.15154C8.88593 4.02082 8.04328 4.02082 7.21365 4.15154C7.13849 3.96539 7.0273 3.73775 6.93001 3.56016C6.92262 3.54709 6.90829 3.54033 6.89395 3.54258C6.10689 3.68231 5.35372 3.92707 4.65093 4.25972C4.64484 4.26243 4.63963 4.26694 4.63617 4.27279C3.20756 6.4729 2.8162 8.61892 3.00819 10.7383C3.00905 10.7487 3.0147 10.7586 3.02252 10.7649C3.96508 11.4785 4.8781 11.9116 5.77418 12.1988C5.78852 12.2033 5.80371 12.1979 5.81284 12.1857C6.02481 11.8873 6.21376 11.5727 6.37576 11.2418C6.38532 11.2224 6.37619 11.1995 6.35665 11.1918C6.05695 11.0746 5.77157 10.9317 5.49706 10.7694C5.47534 10.7564 5.4736 10.7244 5.49358 10.709C5.55135 10.6644 5.60913 10.618 5.66429 10.5711C5.67427 10.5625 5.68818 10.5607 5.69991 10.5661C7.50336 11.4149 9.4558 11.4149 11.238 10.5661C11.2497 10.5603 11.2636 10.5621 11.274 10.5707C11.3292 10.6175 11.387 10.6644 11.4452 10.709C11.4651 10.7244 11.4638 10.7564 11.4421 10.7694C11.1676 10.9349 10.8822 11.0746 10.5821 11.1913C10.5626 11.199 10.5539 11.2224 10.5634 11.2418C10.7289 11.5722 10.9179 11.8868 11.1259 12.1852C11.1346 12.1979 11.1502 12.2033 11.1646 12.1988C12.065 11.9116 12.978 11.4785 13.9206 10.7649C13.9288 10.7586 13.934 10.7492 13.9349 10.7388C14.1647 8.28851 13.5501 6.16008 12.3056 4.27324C12.3026 4.26694 12.2974 4.26243 12.2913 4.25972ZM6.64508 9.44784C6.10211 9.44784 5.65473 8.93399 5.65473 8.30294C5.65473 7.67189 6.09344 7.15804 6.64508 7.15804C7.20104 7.15804 7.6441 7.6764 7.63541 8.30294C7.63541 8.93399 7.1967 9.44784 6.64508 9.44784ZM10.3067 9.44784C9.76376 9.44784 9.31638 8.93399 9.31638 8.30294C9.31638 7.67189 9.75507 7.15804 10.3067 7.15804C10.8627 7.15804 11.3057 7.6764 11.2971 8.30294C11.2971 8.93399 10.8627 9.44784 10.3067 9.44784Z" fill="white"/>
</svg>
