<svg width="17" height="16" viewBox="0 0 17 16" fill="none" xmlns="http://www.w3.org/2000/svg">
<rect x="0.82959" width="15.7424" height="15.7424" rx="7.87122" fill="#191717"/>
<path fill-rule="evenodd" clip-rule="evenodd" d="M8.69906 2.75488C7.42014 2.75555 6.18315 3.20851 5.20929 4.03279C4.23543 4.85707 3.58819 5.99891 3.38332 7.25413C3.17844 8.50935 3.42928 9.79611 4.09099 10.8843C4.7527 11.9725 5.78212 12.7912 6.99519 13.194C7.26281 13.2437 7.36362 13.0778 7.36362 12.9368C7.36362 12.7957 7.35826 12.3868 7.35648 11.9398C5.85779 12.2635 5.54111 11.3073 5.54111 11.3073C5.29668 10.6864 4.94342 10.5232 4.94342 10.5232C4.45456 10.1915 4.97999 10.1977 4.97999 10.1977C5.52148 10.2359 5.80606 10.7503 5.80606 10.7503C6.28599 11.569 7.06655 11.3322 7.37343 11.1938C7.4216 10.847 7.56166 10.6111 7.71599 10.4771C6.51882 10.3423 5.26099 9.88282 5.26099 7.8303C5.25357 7.29799 5.45223 6.78322 5.81587 6.39248C5.76056 6.25765 5.5759 5.71303 5.8685 4.97327C5.8685 4.97327 6.32078 4.82958 7.35024 5.52233C8.23324 5.28223 9.16487 5.28223 10.0479 5.52233C11.0764 4.82958 11.5278 4.97327 11.5278 4.97327C11.8213 5.71126 11.6367 6.25588 11.5813 6.39248C11.9461 6.78328 12.1452 7.29895 12.1371 7.83208C12.1371 9.88903 10.8766 10.3423 9.67766 10.4745C9.87035 10.6412 10.0425 10.9667 10.0425 11.467C10.0425 12.1837 10.0363 12.7603 10.0363 12.9368C10.0363 13.0796 10.1335 13.2463 10.4065 13.194C11.6197 12.7912 12.6492 11.9723 13.3109 10.8839C13.9726 9.79554 14.2233 8.50859 14.0182 7.25325C13.8131 5.99791 13.1655 4.85607 12.1914 4.03193C11.2172 3.2078 9.97991 2.75513 8.70084 2.75488H8.69906Z" fill="white"/>
<path d="M5.35199 10.4461C5.3404 10.4727 5.29758 10.4807 5.26279 10.462C5.228 10.4434 5.20213 10.4088 5.21462 10.3813C5.22711 10.3538 5.26903 10.3467 5.30382 10.3654C5.33861 10.384 5.36537 10.4195 5.35199 10.4461Z" fill="white"/>
<path d="M5.5705 10.6883C5.55203 10.6975 5.53089 10.7001 5.51071 10.6956C5.49054 10.6911 5.47257 10.6797 5.45989 10.6634C5.4251 10.6262 5.41796 10.5747 5.44472 10.5517C5.47148 10.5286 5.51966 10.5393 5.55445 10.5765C5.58924 10.6138 5.59727 10.6652 5.5705 10.6883Z" fill="white"/>
<path d="M5.78274 10.996C5.74974 11.0191 5.69353 10.996 5.66231 10.9499C5.65368 10.9416 5.64681 10.9317 5.64212 10.9207C5.63743 10.9097 5.63501 10.8979 5.63501 10.886C5.63501 10.8741 5.63743 10.8623 5.64212 10.8513C5.64681 10.8404 5.65368 10.8304 5.66231 10.8222C5.69532 10.8 5.75152 10.8222 5.78274 10.8674C5.81397 10.9126 5.81486 10.9729 5.78274 10.996Z" fill="white"/>
<path d="M6.071 11.2941C6.04156 11.3269 5.98179 11.318 5.93273 11.2737C5.88367 11.2293 5.87207 11.169 5.9015 11.1371C5.93094 11.1051 5.99071 11.114 6.04156 11.1575C6.09241 11.2009 6.10222 11.2621 6.071 11.2941Z" fill="white"/>
<path d="M6.47493 11.4679C6.46155 11.5096 6.40089 11.5282 6.34023 11.5105C6.27957 11.4928 6.23942 11.4431 6.25102 11.4005C6.26262 11.3579 6.32417 11.3384 6.38572 11.3579C6.44728 11.3774 6.48653 11.4245 6.47493 11.4679Z" fill="white"/>
<path d="M6.91562 11.498C6.91562 11.5415 6.86566 11.5787 6.80143 11.5796C6.7372 11.5805 6.68457 11.545 6.68457 11.5015C6.68457 11.4581 6.73452 11.4208 6.79875 11.4199C6.86298 11.4191 6.91562 11.4536 6.91562 11.498Z" fill="white"/>
<path d="M7.32612 11.4296C7.33414 11.4731 7.28954 11.5183 7.22531 11.529C7.16108 11.5396 7.10488 11.5139 7.09685 11.4713C7.08882 11.4288 7.13521 11.3826 7.19766 11.3711C7.2601 11.3596 7.31809 11.3862 7.32612 11.4296Z" fill="white"/>
</svg>
