<svg width="16" height="16" viewBox="0 0 16 16" fill="none" xmlns="http://www.w3.org/2000/svg">
<rect x="0.145264" width="15.7424" height="15.7424" rx="7.87122" fill="black"/>
<path d="M8.75913 8.02048C8.75913 9.84176 7.29538 11.3182 5.48985 11.3182C3.68432 11.3182 2.22046 9.84143 2.22046 8.02048C2.22046 6.19953 3.68421 4.72266 5.48985 4.72266C7.29549 4.72266 8.75913 6.1992 8.75913 8.02048Z" fill="white"/>
<path d="M12.3456 8.02042C12.3456 9.73476 11.6137 11.1251 10.7109 11.1251C9.80805 11.1251 9.07617 9.73476 9.07617 8.02042C9.07617 6.30607 9.80794 4.91577 10.7108 4.91577C11.6136 4.91577 12.3455 6.30563 12.3455 8.02042" fill="white"/>
<path d="M13.8126 8.02053C13.8126 9.55616 13.5552 10.8018 13.2377 10.8018C12.9201 10.8018 12.6628 9.5565 12.6628 8.02053C12.6628 6.48457 12.9202 5.23926 13.2377 5.23926C13.5551 5.23926 13.8126 6.48445 13.8126 8.02053Z" fill="white"/>
</svg>
