<svg width="17" height="16" viewBox="0 0 17 16" fill="none" xmlns="http://www.w3.org/2000/svg">
<g clip-path="url(#clip0_665_5369)">
<path d="M8.24451 15.7424C12.5917 15.7424 16.1157 12.2184 16.1157 7.87122C16.1157 3.52406 12.5917 0 8.24451 0C3.89736 0 0.373291 3.52406 0.373291 7.87122C0.373291 12.2184 3.89736 15.7424 8.24451 15.7424Z" fill="#FF4500"/>
<path d="M13.4919 7.87113C13.4919 7.23591 12.9764 6.72037 12.3412 6.72037C12.0282 6.72037 11.752 6.84004 11.5494 7.04258C10.7669 6.48101 9.6806 6.11276 8.48381 6.06673L9.00855 3.6087L10.7117 3.96774C10.7301 4.40043 11.0891 4.75026 11.531 4.75026C11.9821 4.75026 12.3504 4.38202 12.3504 3.93092C12.3504 3.47982 11.9821 3.11157 11.531 3.11157C11.2088 3.11157 10.9326 3.29569 10.8037 3.57188L8.89808 3.16681C8.84285 3.1576 8.78761 3.16681 8.74158 3.19443C8.69555 3.22205 8.66793 3.26808 8.64952 3.32331L8.06953 6.06673C6.84512 6.10356 5.74959 6.46259 4.95787 7.04258C4.75533 6.84925 4.46995 6.72037 4.16614 6.72037C3.53092 6.72037 3.01538 7.23591 3.01538 7.87113C3.01538 8.34064 3.29156 8.7365 3.69663 8.92063C3.67822 9.0311 3.66901 9.15078 3.66901 9.27046C3.66901 11.038 5.72198 12.465 8.26286 12.465C10.8037 12.465 12.8567 11.038 12.8567 9.27046C12.8567 9.15078 12.8475 9.0403 12.8291 8.92983C13.2065 8.74571 13.4919 8.34064 13.4919 7.87113ZM5.62071 8.69047C5.62071 8.23937 5.98895 7.87113 6.44005 7.87113C6.89115 7.87113 7.2594 8.23937 7.2594 8.69047C7.2594 9.14157 6.89115 9.50982 6.44005 9.50982C5.98895 9.50982 5.62071 9.14157 5.62071 8.69047ZM10.1961 10.8539C9.63457 11.4155 8.56666 11.4523 8.25365 11.4523C7.94065 11.4523 6.86353 11.4063 6.31117 10.8539C6.22831 10.7711 6.22831 10.633 6.31117 10.5501C6.39402 10.4673 6.53211 10.4673 6.61497 10.5501C6.9648 10.8999 7.7197 11.0288 8.26286 11.0288C8.80602 11.0288 9.55172 10.8999 9.91075 10.5501C9.99361 10.4673 10.1317 10.4673 10.2146 10.5501C10.279 10.6422 10.279 10.7711 10.1961 10.8539ZM10.0488 9.50982C9.59775 9.50982 9.2295 9.14157 9.2295 8.69047C9.2295 8.23937 9.59775 7.87113 10.0488 7.87113C10.4999 7.87113 10.8682 8.23937 10.8682 8.69047C10.8682 9.14157 10.4999 9.50982 10.0488 9.50982Z" fill="white"/>
</g>
<defs>
<clipPath id="clip0_665_5369">
<rect width="15.7424" height="15.7424" fill="white" transform="translate(0.373291)"/>
</clipPath>
</defs>
</svg>
