<svg width="16" height="17" viewBox="0 0 16 17" fill="none" xmlns="http://www.w3.org/2000/svg">
<rect x="0.0576172" y="0.414307" width="15.7424" height="15.7424" rx="7.87122" fill="url(#paint0_linear_665_5372)"/>
<path fill-rule="evenodd" clip-rule="evenodd" d="M3.6206 8.20249C5.91522 7.20276 7.44533 6.54368 8.21092 6.22524C10.3968 5.31604 10.8511 5.1581 11.1471 5.15289C11.2122 5.15174 11.3578 5.16788 11.4521 5.2444C11.5318 5.30902 11.5537 5.3963 11.5641 5.45756C11.5746 5.51883 11.5877 5.65838 11.5773 5.76743C11.4589 7.01205 10.9463 10.0324 10.6855 11.4264C10.5752 12.0163 10.3579 12.2141 10.1476 12.2334C9.69051 12.2755 9.34342 11.9313 8.9007 11.6411C8.20793 11.187 7.81655 10.9043 7.1441 10.4612C6.36696 9.94906 6.87075 9.66759 7.31364 9.20758C7.42954 9.0872 9.44352 7.25533 9.4825 7.08916C9.48738 7.06837 9.4919 6.9909 9.44588 6.94999C9.39985 6.90909 9.33193 6.92307 9.28291 6.9342C9.21342 6.94997 8.10672 7.68146 5.96278 9.12868C5.64864 9.34439 5.36411 9.44949 5.10918 9.44398C4.82813 9.43791 4.28752 9.28507 3.88563 9.15444C3.39269 8.9942 3.00091 8.90949 3.03503 8.63736C3.0528 8.49562 3.24799 8.35066 3.6206 8.20249Z" fill="white"/>
<defs>
<linearGradient id="paint0_linear_665_5372" x1="7.92884" y1="0.414307" x2="7.92884" y2="16.04" gradientUnits="userSpaceOnUse">
<stop stop-color="#2AABEE"/>
<stop offset="1" stop-color="#229ED9"/>
</linearGradient>
</defs>
</svg>
