<svg width="16" height="16" viewBox="0 0 16 16" fill="none" xmlns="http://www.w3.org/2000/svg">
<rect width="15.7424" height="15.7424" rx="7.87122" fill="#1D9BF0"/>
<path d="M6.43082 12.0234C9.9217 12.0234 11.8305 9.13069 11.8305 6.62371C11.8305 6.54106 11.8305 6.45841 11.8265 6.3797C12.1965 6.11208 12.5192 5.77755 12.775 5.3958C12.4366 5.54535 12.0705 5.64767 11.6849 5.6949C12.0784 5.45877 12.3775 5.08882 12.5192 4.64409C12.1532 4.86055 11.7478 5.01798 11.3149 5.10456C10.9686 4.73461 10.4766 4.50635 9.92957 4.50635C8.8827 4.50635 8.03261 5.35644 8.03261 6.40331C8.03261 6.55287 8.04835 6.69848 8.08377 6.83623C6.50559 6.75752 5.10845 6.00188 4.17178 4.85268C4.01042 5.13211 3.91596 5.45877 3.91596 5.8051C3.91596 6.46235 4.25049 7.04482 4.76212 7.38328C4.45121 7.37541 4.15997 7.28882 3.90416 7.14714C3.90416 7.15501 3.90416 7.16288 3.90416 7.17076C3.90416 8.09169 4.55747 8.8552 5.42724 9.0323C5.26981 9.07559 5.10058 9.09921 4.92741 9.09921C4.80541 9.09921 4.68734 9.0874 4.56927 9.06378C4.80935 9.81942 5.50989 10.3665 6.3403 10.3822C5.69092 10.8899 4.87232 11.1929 3.98287 11.1929C3.82938 11.1929 3.67983 11.1851 3.53027 11.1654C4.36069 11.7085 5.36033 12.0234 6.43082 12.0234Z" fill="white"/>
</svg>
