<svg width="46" height="46" viewBox="0 0 46 46" fill="none" xmlns="http://www.w3.org/2000/svg">
<path d="M18.0086 12.4248C17.6964 13.0238 17.6964 14.2938 18.0086 14.4855C18.3928 14.7252 18.2727 15.4441 17.7444 16.139C17.0961 16.9537 16.856 16.9297 15.4634 15.9233C12.702 13.9344 10.8772 13.4791 9.00428 14.3418C6.81924 15.3242 5.8828 17.1933 4.94635 22.561C4.61019 24.478 4.22601 26.3471 4.08194 26.7305C3.43363 28.4079 2.3051 28.7194 1.20057 27.5452C0.456217 26.7545 0 26.6347 0 27.2098C0 27.9047 1.56074 29.2226 2.37713 29.2226C4.46612 29.2226 5.90681 27.689 6.86727 24.454C7.73168 21.5546 7.70767 21.5785 7.92377 22.2734C8.01982 22.6089 8.25993 23.2319 8.47603 23.6393C9.0283 24.6697 9.00428 24.7176 8.04383 25.8678C7.3475 26.6826 7.20343 27.066 7.20343 27.9766C7.17942 29.2466 6.7232 30.7323 6.12291 31.3793C5.30653 32.2659 6.17094 33.3922 7.29947 32.865C8.01982 32.5535 9.26841 30.4447 9.48451 29.1987C9.65259 28.2881 9.72463 28.1683 11.7416 26.2513C12.534 25.4844 13.1102 24.6937 13.3744 23.9508L13.7826 22.8006L14.743 22.9204C15.8475 23.0642 15.9676 23.1361 16.1837 23.8789C16.3278 24.2863 16.2317 24.4061 15.7995 24.478C15.4874 24.5259 15.2232 24.7416 15.1752 24.9573C15.1032 25.2927 15.2473 25.3886 15.7995 25.3886C16.736 25.3886 17.4323 24.5499 17.6244 23.184C17.7204 22.5131 18.0566 21.7463 18.4408 21.243C18.825 20.7877 19.3052 19.973 19.5693 19.4219C19.8815 18.679 20.1216 18.4634 20.3857 18.5832C20.6018 18.6551 21.3462 18.7749 22.0665 18.8228C24.4196 19.0145 24.6117 18.1039 22.7148 15.9473C21.8984 15.0127 21.3942 14.174 21.2741 13.6229C21.2021 13.1676 20.986 12.5685 20.7939 12.3289C20.3857 11.7538 19.8574 12.0893 20.0255 12.8082C20.1696 13.3353 20.1216 13.3353 19.4733 12.6644C18.6329 11.8496 18.3447 11.8017 18.0086 12.4248ZM21.6343 16.1629C23.171 17.6966 23.219 17.8883 22.0185 17.8164C21.4662 17.7684 20.6738 17.6726 20.2416 17.5767C19.4973 17.433 19.4493 17.4809 18.7049 18.9426C18.2967 19.7813 17.6724 20.7877 17.3362 21.1951C16.76 21.89 16.736 21.89 16.904 21.3149C17.1922 20.3564 17.1922 19.8053 16.88 19.7094C16.6159 19.6136 16.1117 20.4523 15.7515 21.6504C15.6314 22.0098 15.4393 22.0578 14.815 21.938C13.1102 21.6264 13.1342 21.6264 12.8221 22.6568C12.3419 24.2863 11.8857 24.9812 10.3729 26.2752C9.22039 27.2817 8.88423 27.7369 8.66812 28.6475C8.35598 29.8696 7.58761 31.4991 7.20343 31.7387C7.08337 31.8106 7.17942 31.5231 7.44354 31.0678C7.70767 30.6364 7.9958 29.5821 8.06784 28.7194C8.21191 27.5213 8.37999 27.0181 8.90824 26.395C9.94073 25.2209 10.0128 24.5739 9.26841 23.0642C8.93225 22.3693 8.64411 21.4587 8.64411 21.0513C8.64411 20.644 8.50004 20.2845 8.28394 20.1887C7.61162 19.9491 6.96331 20.8836 6.315 23.0402C5.95483 24.1905 5.64268 25.101 5.59466 25.0771C5.54664 25.0292 5.73873 23.6393 6.02687 22.0098C6.79523 17.409 7.97179 15.3482 10.0608 14.9408C11.3094 14.6772 12.3659 15.0367 14.4069 16.4026C15.5114 17.1214 16.6399 17.7205 16.9281 17.7205C17.6964 17.7205 18.5608 16.9537 19.0891 15.8275C19.4973 14.9169 19.4973 14.821 19.1371 14.4137C18.897 14.174 18.7289 13.8386 18.7289 13.6708C18.7289 13.3593 19.4973 14.0303 21.6343 16.1629Z" fill="#F43F5E"/>
<rect x="22" y="0.52417" width="24" height="10.5" rx="5.24999" fill="#D9D9D9"/>
<path d="M23.7584 12.9365L23.9231 9.13447L26.9688 10.8929L23.7584 12.9365Z" fill="#D9D9D9"/>
<path d="M29.365 7.59917C29.135 7.59917 28.9517 7.5525 28.815 7.45917C28.6783 7.3625 28.5833 7.25417 28.53 7.13417H28.41V7.52417H27.93V3.52417H28.47V4.88417H28.59C28.6567 4.75417 28.7533 4.64917 28.88 4.56917C29.0067 4.48917 29.1717 4.44917 29.375 4.44917C29.6283 4.44917 29.8433 4.51417 30.02 4.64417C30.2 4.77417 30.3367 4.9575 30.43 5.19417C30.5267 5.4275 30.575 5.70417 30.575 6.02417C30.575 6.34417 30.5267 6.6225 30.43 6.85917C30.3367 7.0925 30.2 7.27417 30.02 7.40417C29.84 7.53417 29.6217 7.59917 29.365 7.59917ZM29.27 7.14917C29.5133 7.14917 29.7 7.05084 29.83 6.85417C29.96 6.6575 30.025 6.38084 30.025 6.02417C30.025 5.6675 29.96 5.39084 29.83 5.19417C29.7 4.9975 29.5133 4.89917 29.27 4.89917C29.02 4.89917 28.8217 5.0025 28.675 5.20917C28.5283 5.41584 28.455 5.6875 28.455 6.02417C28.455 6.36084 28.5283 6.6325 28.675 6.83917C28.8217 7.04584 29.02 7.14917 29.27 7.14917ZM32.3688 7.59917C31.9288 7.59917 31.5938 7.45584 31.3638 7.16917C31.1372 6.87917 31.0238 6.4975 31.0238 6.02417C31.0238 5.71084 31.0738 5.4375 31.1738 5.20417C31.2772 4.9675 31.4272 4.7825 31.6238 4.64917C31.8238 4.51584 32.0705 4.44917 32.3638 4.44917C32.7738 4.44917 33.0855 4.5825 33.2988 4.84917C33.5155 5.11584 33.6238 5.5025 33.6238 6.00917V6.16417H31.5488C31.5655 6.4575 31.6405 6.69917 31.7738 6.88917C31.9105 7.07584 32.1105 7.16917 32.3738 7.16917C32.5638 7.16917 32.7172 7.11584 32.8338 7.00917C32.9505 6.9025 33.0338 6.75417 33.0838 6.56417H33.5938C33.5505 6.7675 33.4788 6.9475 33.3788 7.10417C33.2788 7.2575 33.1455 7.37917 32.9788 7.46917C32.8122 7.55584 32.6088 7.59917 32.3688 7.59917ZM31.5538 5.77417H33.0988C33.0888 5.48417 33.0188 5.2625 32.8888 5.10917C32.7588 4.95584 32.5822 4.87917 32.3588 4.87917C32.1222 4.87917 31.9355 4.9575 31.7988 5.11417C31.6655 5.27084 31.5838 5.49084 31.5538 5.77417ZM34.6566 7.52417C34.5832 7.43417 34.5232 7.32584 34.4766 7.19917C34.4332 7.0725 34.4116 6.8825 34.4116 6.62917V4.94417H34.0016V4.52417H34.4216V3.77417H34.9416V4.52417H35.4516V4.94417H34.9516V6.54417C34.9516 6.8175 34.9799 7.0225 35.0366 7.15917C35.0966 7.2925 35.1682 7.40417 35.2516 7.49417V7.52417H34.6566ZM37.0385 7.59917C36.7818 7.59917 36.5635 7.53417 36.3835 7.40417C36.2035 7.27417 36.0652 7.0925 35.9685 6.85917C35.8752 6.6225 35.8285 6.34417 35.8285 6.02417C35.8285 5.70417 35.8752 5.4275 35.9685 5.19417C36.0652 4.9575 36.2035 4.77417 36.3835 4.64417C36.5668 4.51417 36.7885 4.44917 37.0485 4.44917C37.2752 4.44917 37.4552 4.4975 37.5885 4.59417C37.7252 4.6875 37.8202 4.79417 37.8735 4.91417H37.9935V4.52417H38.4735V7.52417H37.9935V7.13417H37.8735C37.8202 7.25417 37.7252 7.3625 37.5885 7.45917C37.4518 7.5525 37.2685 7.59917 37.0385 7.59917ZM37.1335 7.14917C37.3835 7.14917 37.5818 7.04584 37.7285 6.83917C37.8752 6.6325 37.9485 6.36084 37.9485 6.02417C37.9485 5.6875 37.8752 5.41584 37.7285 5.20917C37.5818 5.0025 37.3835 4.89917 37.1335 4.89917C36.8902 4.89917 36.7035 4.9975 36.5735 5.19417C36.4435 5.39084 36.3785 5.6675 36.3785 6.02417C36.3785 6.38084 36.4435 6.6575 36.5735 6.85417C36.7035 7.05084 36.8902 7.14917 37.1335 7.14917Z" fill="black"/>
<path d="M2.26 45V44.94C2.42667 44.7467 2.56667 44.5067 2.68 44.22C2.8 43.9333 2.86 43.55 2.86 43.07V37H3.94V43.21C3.94 43.7167 3.88333 44.0967 3.77 44.35C3.65667 44.6033 3.53 44.82 3.39 45H2.26ZM3.4 36.16C3.19333 36.16 3.03 36.1 2.91 35.98C2.79667 35.86 2.74 35.7 2.74 35.5C2.74 35.3 2.79667 35.14 2.91 35.02C3.03 34.9 3.19333 34.84 3.4 34.84C3.61333 34.84 3.77667 34.9 3.89 35.02C4.00333 35.14 4.06 35.3 4.06 35.5C4.06 35.7 4.00333 35.86 3.89 35.98C3.77667 36.1 3.61333 36.16 3.4 36.16ZM7.95078 43.15C7.03745 43.15 6.35745 42.8667 5.91078 42.3C5.47078 41.7267 5.25078 40.96 5.25078 40C5.25078 39.04 5.47078 38.2767 5.91078 37.71C6.35745 37.1367 7.03745 36.85 7.95078 36.85C8.86411 36.85 9.54078 37.1367 9.98078 37.71C10.4274 38.2767 10.6508 39.04 10.6508 40C10.6508 40.96 10.4274 41.7267 9.98078 42.3C9.54078 42.8667 8.86411 43.15 7.95078 43.15ZM7.95078 42.27C8.50411 42.27 8.90745 42.0667 9.16078 41.66C9.42078 41.2533 9.55078 40.7 9.55078 40C9.55078 39.3 9.42078 38.7467 9.16078 38.34C8.90745 37.9333 8.50411 37.73 7.95078 37.73C7.39745 37.73 6.99078 37.9333 6.73078 38.34C6.47745 38.7467 6.35078 39.3 6.35078 40C6.35078 40.7 6.47745 41.2533 6.73078 41.66C6.99078 42.0667 7.39745 42.27 7.95078 42.27ZM14.2455 43.15C13.3655 43.15 12.6955 42.8633 12.2355 42.29C11.7821 41.71 11.5555 40.9467 11.5555 40C11.5555 39.3733 11.6555 38.8267 11.8555 38.36C12.0621 37.8867 12.3621 37.5167 12.7555 37.25C13.1555 36.9833 13.6488 36.85 14.2355 36.85C15.0555 36.85 15.6788 37.1167 16.1055 37.65C16.5388 38.1833 16.7555 38.9567 16.7555 39.97V40.28H12.6055C12.6388 40.8667 12.7888 41.35 13.0555 41.73C13.3288 42.1033 13.7288 42.29 14.2555 42.29C14.6355 42.29 14.9421 42.1833 15.1755 41.97C15.4088 41.7567 15.5755 41.46 15.6755 41.08H16.6955C16.6088 41.4867 16.4655 41.8467 16.2655 42.16C16.0655 42.4667 15.7988 42.71 15.4655 42.89C15.1321 43.0633 14.7255 43.15 14.2455 43.15ZM12.6155 39.5H15.7055C15.6855 38.92 15.5455 38.4767 15.2855 38.17C15.0255 37.8633 14.6721 37.71 14.2255 37.71C13.7521 37.71 13.3788 37.8667 13.1055 38.18C12.8388 38.4933 12.6755 38.9333 12.6155 39.5ZM18.1617 45V44.94C18.3551 44.6467 18.5584 44.3 18.7717 43.9C18.9851 43.5067 19.1784 43.1033 19.3517 42.69L17.1917 37.06V37H18.2717L19.3917 40C19.4584 40.1733 19.5217 40.3567 19.5817 40.55C19.6484 40.7367 19.7151 40.9667 19.7817 41.24H20.0217C20.0884 40.9667 20.1517 40.7367 20.2117 40.55C20.2784 40.3567 20.3451 40.1733 20.4117 40L21.5317 37H22.5317V37.06L20.4717 42.46C20.2717 42.9867 20.0651 43.4733 19.8517 43.92C19.6451 44.3667 19.4551 44.7267 19.2817 45H18.1617Z" fill="#F43F5E"/>
</svg>
