<svg width="24" height="32" viewBox="0 0 24 32" fill="none" xmlns="http://www.w3.org/2000/svg">
<path d="M18.0086 0.424751C17.6964 1.02382 17.6964 2.29384 18.0086 2.48555C18.3928 2.72517 18.2727 3.44406 17.7444 4.13898C17.0961 4.95371 16.856 4.92975 15.4634 3.92331C12.702 1.9344 10.8772 1.47911 9.00428 2.34177C6.81924 3.32424 5.8828 5.19334 4.94635 10.561C4.61019 12.478 4.22601 14.3471 4.08194 14.7305C3.43363 16.4079 2.3051 16.7194 1.20057 15.5452C0.456217 14.7545 0 14.6347 0 15.2098C0 15.9047 1.56074 17.2226 2.37713 17.2226C4.46612 17.2226 5.90681 15.689 6.86727 12.454C7.73168 9.55456 7.70767 9.57852 7.92377 10.2734C8.01982 10.6089 8.25993 11.2319 8.47603 11.6393C9.0283 12.6697 9.00428 12.7176 8.04383 13.8678C7.3475 14.6826 7.20343 15.066 7.20343 15.9766C7.17942 17.2466 6.7232 18.7323 6.12291 19.3793C5.30653 20.2659 6.17094 21.3922 7.29947 20.865C8.01982 20.5535 9.26841 18.4447 9.48451 17.1987C9.65259 16.2881 9.72463 16.1683 11.7416 14.2513C12.534 13.4844 13.1102 12.6937 13.3744 11.9508L13.7826 10.8006L14.743 10.9204C15.8475 11.0642 15.9676 11.1361 16.1837 11.8789C16.3278 12.2863 16.2317 12.4061 15.7995 12.478C15.4874 12.5259 15.2232 12.7416 15.1752 12.9573C15.1032 13.2927 15.2473 13.3886 15.7995 13.3886C16.736 13.3886 17.4323 12.5499 17.6244 11.184C17.7204 10.5131 18.0566 9.74626 18.4408 9.24304C18.825 8.78775 19.3052 7.97301 19.5693 7.42187C19.8815 6.67903 20.1216 6.46336 20.3857 6.58318C20.6018 6.65506 21.3462 6.77488 22.0665 6.8228C24.4196 7.0145 24.6117 6.10392 22.7148 3.94727C21.8984 3.01273 21.3942 2.17403 21.2741 1.62289C21.2021 1.1676 20.986 0.568528 20.7939 0.3289C20.3857 -0.246206 19.8574 0.0892723 20.0255 0.808155C20.1696 1.33533 20.1216 1.33534 19.4733 0.664379C18.6329 -0.150355 18.3447 -0.19828 18.0086 0.424751ZM21.6343 4.16294C23.171 5.69655 23.219 5.88826 22.0185 5.81637C21.4662 5.76844 20.6738 5.67259 20.2416 5.57674C19.4973 5.43296 19.4493 5.48089 18.7049 6.94262C18.2967 7.78131 17.6724 8.78775 17.3362 9.19511C16.76 9.89003 16.736 9.89003 16.904 9.31493C17.1922 8.35642 17.1922 7.80528 16.88 7.70942C16.6159 7.61357 16.1117 8.45227 15.7515 9.65041C15.6314 10.0098 15.4393 10.0578 14.815 9.93796C13.1102 9.62644 13.1342 9.62644 12.8221 10.6568C12.3419 12.2863 11.8857 12.9812 10.3729 14.2752C9.22039 15.2817 8.88423 15.7369 8.66812 16.6475C8.35598 17.8696 7.58761 19.4991 7.20343 19.7387C7.08337 19.8106 7.17942 19.5231 7.44354 19.0678C7.70767 18.6364 7.9958 17.5821 8.06784 16.7194C8.21191 15.5213 8.37999 15.0181 8.90824 14.395C9.94073 13.2209 10.0128 12.5739 9.26841 11.0642C8.93225 10.3693 8.64411 9.4587 8.64411 9.05134C8.64411 8.64397 8.50004 8.28453 8.28394 8.18868C7.61162 7.94905 6.96331 8.8836 6.315 11.0402C5.95483 12.1905 5.64268 13.101 5.59466 13.0771C5.54664 13.0292 5.73873 11.6393 6.02687 10.0098C6.79523 5.409 7.97179 3.34821 10.0608 2.94084C11.3094 2.67725 12.3659 3.03669 14.4069 4.40257C15.5114 5.12145 16.6399 5.72052 16.9281 5.72052C17.6964 5.72052 18.5608 4.95371 19.0891 3.82746C19.4973 2.91688 19.4973 2.82103 19.1371 2.41366C18.897 2.17403 18.7289 1.83855 18.7289 1.67081C18.7289 1.3593 19.4973 2.03025 21.6343 4.16294Z" fill="#F43F5E"/>
<path d="M4.06667 31.25V31.2C4.2 31.0167 4.32222 30.8222 4.43333 30.6167C4.55 30.4111 4.64167 30.1639 4.70833 29.875C4.78056 29.5861 4.81667 29.2278 4.81667 28.8V23.5H5.75V28.8C5.75 29.2611 5.71944 29.6417 5.65833 29.9417C5.59722 30.2417 5.51667 30.4917 5.41667 30.6917C5.32222 30.8972 5.21944 31.0833 5.10833 31.25H4.06667ZM9.125 30.125C8.36389 30.125 7.79722 29.8889 7.425 29.4167C7.05833 28.9389 6.875 28.3 6.875 27.5C6.875 26.7 7.05833 26.0639 7.425 25.5917C7.79722 25.1139 8.36389 24.875 9.125 24.875C9.88611 24.875 10.45 25.1139 10.8167 25.5917C11.1889 26.0639 11.375 26.7 11.375 27.5C11.375 28.3 11.1889 28.9389 10.8167 29.4167C10.45 29.8889 9.88611 30.125 9.125 30.125ZM9.125 29.3917C9.58611 29.3917 9.92222 29.2222 10.1333 28.8833C10.35 28.5444 10.4583 28.0833 10.4583 27.5C10.4583 26.9167 10.35 26.4556 10.1333 26.1167C9.92222 25.7778 9.58611 25.6083 9.125 25.6083C8.66389 25.6083 8.325 25.7778 8.10833 26.1167C7.89722 26.4556 7.79167 26.9167 7.79167 27.5C7.79167 28.0833 7.89722 28.5444 8.10833 28.8833C8.325 29.2222 8.66389 29.3917 9.125 29.3917ZM14.3706 30.125C13.6372 30.125 13.0789 29.8861 12.6956 29.4083C12.3178 28.925 12.1289 28.2889 12.1289 27.5C12.1289 26.9778 12.2122 26.5222 12.3789 26.1333C12.5511 25.7389 12.8011 25.4306 13.1289 25.2083C13.4622 24.9861 13.8734 24.875 14.3622 24.875C15.0456 24.875 15.565 25.0972 15.9206 25.5417C16.2817 25.9861 16.4622 26.6306 16.4622 27.475V27.7333H13.0039C13.0317 28.2222 13.1567 28.625 13.3789 28.9417C13.6067 29.2528 13.94 29.4083 14.3789 29.4083C14.6956 29.4083 14.9511 29.3194 15.1456 29.1417C15.34 28.9639 15.4789 28.7167 15.5622 28.4H16.4122C16.34 28.7389 16.2206 29.0389 16.0539 29.3C15.8872 29.5556 15.665 29.7583 15.3872 29.9083C15.1095 30.0528 14.7706 30.125 14.3706 30.125ZM13.0122 27.0833H15.5872C15.5706 26.6 15.4539 26.2306 15.2372 25.975C15.0206 25.7194 14.7261 25.5917 14.3539 25.5917C13.9595 25.5917 13.6484 25.7222 13.4206 25.9833C13.1984 26.2444 13.0622 26.6111 13.0122 27.0833ZM17.6341 31.6667V31.6167C17.7952 31.3722 17.9647 31.0833 18.1424 30.75C18.3202 30.4222 18.4813 30.0861 18.6258 29.7417L16.8258 25.05V25H17.7258L18.6591 27.5C18.7147 27.6444 18.7674 27.7972 18.8174 27.9583C18.873 28.1139 18.9286 28.3056 18.9841 28.5333H19.1841C19.2397 28.3056 19.2924 28.1139 19.3424 27.9583C19.398 27.7972 19.4536 27.6444 19.5091 27.5L20.4424 25H21.2758V25.05L19.5591 29.55C19.3924 29.9889 19.2202 30.3944 19.0424 30.7667C18.8702 31.1389 18.7119 31.4389 18.5674 31.6667H17.6341Z" fill="#F43F5E"/>
</svg>
