<svg width="18" height="25" viewBox="0 0 18 25" fill="none" xmlns="http://www.w3.org/2000/svg">
<path d="M13.5064 0.32362C13.2723 0.780053 13.2723 1.74769 13.5064 1.89375C13.7946 2.07632 13.7045 2.62404 13.3083 3.15351C12.8221 3.77426 12.642 3.756 11.5975 2.98919C9.52653 1.47383 8.15788 1.12694 6.75321 1.78421C5.11443 2.53276 4.4121 3.95683 3.70977 8.04647C3.45765 9.50706 3.16951 10.9311 3.06146 11.2232C2.57523 12.5013 1.72882 12.7386 0.900428 11.844C0.342163 11.2415 0 11.1502 0 11.5884C0 12.1179 1.17056 13.122 1.78285 13.122C3.34959 13.122 4.43011 11.9535 5.15045 9.4888C5.79876 7.27966 5.78075 7.29792 5.94283 7.82738C6.01486 8.08298 6.19495 8.55767 6.35702 8.86805C6.77122 9.65311 6.75321 9.68963 6.03287 10.566C5.51062 11.1867 5.40257 11.4788 5.40257 12.1726C5.38456 13.1403 5.0424 14.2722 4.59219 14.7652C3.97989 15.4407 4.6282 16.2988 5.4746 15.8971C6.01486 15.6598 6.95131 14.0531 7.11338 13.1037C7.23944 12.41 7.29347 12.3187 8.80619 10.8581C9.40047 10.2739 9.83268 9.67137 10.0308 9.10539L10.3369 8.22904L11.0573 8.32033C11.8857 8.42987 11.9757 8.48464 12.1378 9.05062C12.2458 9.361 12.1738 9.45228 11.8496 9.50706C11.6155 9.54357 11.4174 9.70789 11.3814 9.8722C11.3274 10.1278 11.4354 10.2008 11.8496 10.2008C12.552 10.2008 13.0742 9.56183 13.2183 8.52116C13.2903 8.00995 13.5424 7.42572 13.8306 7.04232C14.1187 6.69543 14.4789 6.07468 14.677 5.65476C14.9111 5.08878 15.0912 4.92447 15.2893 5.01575C15.4514 5.07052 16.0096 5.16181 16.5499 5.19833C18.3147 5.34438 18.4588 4.65061 17.0361 3.00745C16.4238 2.29541 16.0456 1.65641 15.9556 1.23649C15.9016 0.889597 15.7395 0.433164 15.5954 0.250591C15.2893 -0.187585 14.8931 0.068017 15.0191 0.615737C15.1272 1.0174 15.0912 1.0174 14.6049 0.506193C13.9746 -0.114556 13.7585 -0.15107 13.5064 0.32362ZM16.2257 3.17176C17.3783 4.34023 17.4143 4.48629 16.5139 4.43152C16.0997 4.395 15.5054 4.32197 15.1812 4.24895C14.623 4.1394 14.5869 4.17592 14.0287 5.28961C13.7225 5.92862 13.2543 6.69543 13.0022 7.0058C12.57 7.53526 12.552 7.53526 12.678 7.09709C12.8941 6.3668 12.8941 5.94688 12.66 5.87385C12.4619 5.80082 12.0838 6.43982 11.8136 7.35269C11.7236 7.62655 11.5795 7.66307 11.1113 7.57178C9.83268 7.33443 9.85069 7.33443 9.61658 8.1195C9.2564 9.361 8.91424 9.89046 7.7797 10.8764C6.91529 11.6432 6.66317 11.9901 6.50109 12.6838C6.26698 13.615 5.69071 14.8565 5.40257 15.039C5.31253 15.0938 5.38456 14.8747 5.58266 14.5278C5.78075 14.1992 5.99685 13.3959 6.05088 12.7386C6.15893 11.8257 6.28499 11.4423 6.68118 10.9676C7.45555 10.073 7.50957 9.58008 6.95131 8.42987C6.69919 7.90041 6.48309 7.20663 6.48309 6.89626C6.48309 6.58588 6.37503 6.31202 6.21296 6.23899C5.70872 6.05642 5.22248 6.76846 4.73625 8.41162C4.46613 9.28797 4.23201 9.98175 4.196 9.96349C4.15998 9.92697 4.30405 8.86805 4.52015 7.62655C5.09643 4.12114 5.97884 2.55101 7.54559 2.24064C8.48204 2.03981 9.27441 2.31367 10.8051 3.35434C11.6335 3.90206 12.4799 4.35849 12.696 4.35849C13.2723 4.35849 13.9206 3.77425 14.3168 2.91616C14.623 2.22238 14.623 2.14935 14.3528 1.83898C14.1727 1.6564 14.0467 1.4008 14.0467 1.273C14.0467 1.03566 14.623 1.54686 16.2257 3.17176Z" fill="#F43F5E"/>
<path d="M2.17333 24.3333V24.2933C2.28444 24.1644 2.37778 24.0044 2.45333 23.8133C2.53333 23.6222 2.57333 23.3667 2.57333 23.0467V19H3.29333V23.14C3.29333 23.4778 3.25556 23.7311 3.18 23.9C3.10444 24.0689 3.02 24.2133 2.92667 24.3333H2.17333ZM2.93333 18.44C2.79556 18.44 2.68667 18.4 2.60667 18.32C2.53111 18.24 2.49333 18.1333 2.49333 18C2.49333 17.8667 2.53111 17.76 2.60667 17.68C2.68667 17.6 2.79556 17.56 2.93333 17.56C3.07556 17.56 3.18444 17.6 3.26 17.68C3.33556 17.76 3.37333 17.8667 3.37333 18C3.37333 18.1333 3.33556 18.24 3.26 18.32C3.18444 18.4 3.07556 18.44 2.93333 18.44ZM5.96719 23.1C5.3583 23.1 4.90497 22.9111 4.60719 22.5333C4.31385 22.1511 4.16719 21.64 4.16719 21C4.16719 20.36 4.31385 19.8511 4.60719 19.4733C4.90497 19.0911 5.3583 18.9 5.96719 18.9C6.57608 18.9 7.02719 19.0911 7.32052 19.4733C7.6183 19.8511 7.76719 20.36 7.76719 21C7.76719 21.64 7.6183 22.1511 7.32052 22.5333C7.02719 22.9111 6.57608 23.1 5.96719 23.1ZM5.96719 22.5133C6.33608 22.5133 6.60497 22.3778 6.77385 22.1067C6.94719 21.8356 7.03385 21.4667 7.03385 21C7.03385 20.5333 6.94719 20.1644 6.77385 19.8933C6.60497 19.6222 6.33608 19.4867 5.96719 19.4867C5.5983 19.4867 5.32719 19.6222 5.15385 19.8933C4.98497 20.1644 4.90052 20.5333 4.90052 21C4.90052 21.4667 4.98497 21.8356 5.15385 22.1067C5.32719 22.3778 5.5983 22.5133 5.96719 22.5133ZM10.1636 23.1C9.57698 23.1 9.13031 22.9089 8.82365 22.5267C8.52142 22.14 8.37031 21.6311 8.37031 21C8.37031 20.5822 8.43698 20.2178 8.57031 19.9067C8.70809 19.5911 8.90809 19.3444 9.17031 19.1667C9.43698 18.9889 9.76587 18.9 10.157 18.9C10.7036 18.9 11.1192 19.0778 11.4036 19.4333C11.6925 19.7889 11.837 20.3044 11.837 20.98V21.1867H9.07031C9.09253 21.5778 9.19253 21.9 9.37031 22.1533C9.55253 22.4022 9.8192 22.5267 10.1703 22.5267C10.4236 22.5267 10.6281 22.4556 10.7836 22.3133C10.9392 22.1711 11.0503 21.9733 11.117 21.72H11.797C11.7392 21.9911 11.6436 22.2311 11.5103 22.44C11.377 22.6444 11.1992 22.8067 10.977 22.9267C10.7548 23.0422 10.4836 23.1 10.1636 23.1ZM9.07698 20.6667H11.137C11.1236 20.28 11.0303 19.9844 10.857 19.78C10.6836 19.5756 10.4481 19.4733 10.1503 19.4733C9.83476 19.4733 9.58587 19.5778 9.40365 19.7867C9.22587 19.9956 9.11698 20.2889 9.07698 20.6667ZM12.7745 24.3333V24.2933C12.9034 24.0978 13.0389 23.8667 13.1811 23.6C13.3234 23.3378 13.4523 23.0689 13.5678 22.7933L12.1278 19.04V19H12.8478L13.5945 21C13.6389 21.1156 13.6811 21.2378 13.7211 21.3667C13.7656 21.4911 13.81 21.6444 13.8545 21.8267H14.0145C14.0589 21.6444 14.1011 21.4911 14.1411 21.3667C14.1856 21.2378 14.23 21.1156 14.2745 21L15.0211 19H15.6878V19.04L14.3145 22.64C14.1811 22.9911 14.0434 23.3156 13.9011 23.6133C13.7634 23.9111 13.6367 24.1511 13.5211 24.3333H12.7745Z" fill="#F43F5E"/>
</svg>
